<svg width="174" height="128" viewBox="0 0 174 128" fill="none" xmlns="http://www.w3.org/2000/svg">
<path fill-rule="evenodd" clip-rule="evenodd" d="M65.9208 0.132145C50.3682 0.841993 28.3135 3.73844 7.2513 7.8373C4.69146 8.33553 4.36713 8.41199 4.45255 8.49739C4.48315 8.52793 5.59999 8.37612 6.93448 8.16007C13.4597 7.10321 24.072 5.688 31.6421 4.8651C35.9303 4.39902 42.1729 3.80343 42.6509 3.81474C42.8321 3.8191 41.4379 4.08581 39.5526 4.40758C32.1833 5.66507 24.9461 7.19177 18.0623 8.94061C11.9987 10.4811 4.81749 12.5889 4.48262 12.9265C4.39429 13.0155 4.43766 13.0343 4.61445 12.9836C8.69196 11.8139 19.0818 9.43149 26.1706 8.04091C39.586 5.40905 51.1855 3.9307 65.6572 3.00832C69.185 2.78351 82.7841 2.69549 86.884 2.871C112.007 3.94666 133.773 9.00378 152.673 18.1565C158.119 20.7937 164.105 24.3489 168.296 27.4352C169.56 28.366 172.251 30.5492 172.251 30.6438C172.251 30.6722 171.91 30.4761 171.493 30.2086C166.906 27.2646 164.05 25.5262 161.309 24.0091C149.406 17.421 136.414 12.334 122.877 8.96108C103.556 4.14734 82.3977 2.70972 60.6472 4.73292C48.0467 5.90504 35.1249 8.31499 23.6602 11.631C19.7867 12.7513 11.1132 15.6694 8.07119 16.8755C5.60526 17.8532 1.83036 19.667 0.659208 20.4368L0 20.87L3.61036 20.9434L11.2319 19.288C15.4236 18.3776 19.0907 17.5238 19.3807 17.3907C20.1388 17.0429 24.2479 15.6659 27.0934 14.8062C39.7285 10.989 54.182 8.26725 67.9645 7.10954C74.3306 6.57482 76.1964 6.50696 84.5106 6.50736C94.0017 6.50776 97.9155 6.72293 106.199 7.69987C127.734 10.2398 148.691 17.1324 166.582 27.5596C167.706 28.2146 169.769 29.4531 171.166 30.3117C172.563 31.1703 173.779 31.8718 173.869 31.8702C174.379 31.8617 167.755 26.6117 163.616 23.7431C147.036 12.2555 126.334 4.8987 102.903 2.1676C99.7115 1.79575 96.7826 1.53076 92.6024 1.23586C91.0342 1.12517 87.0589 0.798509 83.7691 0.509669C78.0557 0.00828037 77.5731 -0.0143842 73.0401 0.0041955C70.4299 0.0150007 67.2263 0.0724528 65.9208 0.132145ZM43.6067 3.76111C43.5162 3.79774 43.3678 3.79774 43.2771 3.76111C43.1865 3.72462 43.2606 3.6947 43.4419 3.6947C43.6232 3.6947 43.6973 3.72462 43.6067 3.76111Z" fill="#00996B"/>
<path d="M77.4571 12.054C73.6467 12.3139 71.3029 12.6024 69.376 13.049L68.2169 13.3178L67.1574 14.8983C66.5747 15.7676 66.1219 16.5028 66.1511 16.532C66.1803 16.5611 67.2379 16.4394 68.5015 16.2615C74.4655 15.4217 79.9237 14.9334 87.7678 14.5377L89.4425 14.4533L90.9029 12.514L90.4756 12.4425C88.8737 12.1742 79.7065 11.9007 77.4571 12.054Z" fill="#00996B"/>
<path d="M103.962 14.7354C103.669 15.1663 103.43 15.5746 103.43 15.6429C103.43 15.7153 104.846 15.8008 106.825 15.848C114.399 16.0285 118.497 16.3451 121.277 16.9645L122.388 17.2116L122.764 16.9113C122.971 16.7462 123.111 16.5822 123.074 16.547C122.964 16.44 118.515 15.4401 116.548 15.0804C112.773 14.39 108.723 13.952 106.117 13.952H104.495L103.962 14.7354Z" fill="#00996B"/>
<path d="M51.682 15.9457C47.9795 16.6161 43.9398 17.5668 40.2777 18.6295C36.4092 19.7522 29.6501 22.0978 25.9069 23.6169L24.7863 24.0717L23.9015 26.0945C23.4148 27.2072 23.0638 28.1339 23.1212 28.154C23.1787 28.1741 24.2887 27.7666 25.5881 27.2486C32.9518 24.3124 40.3864 21.9262 49.4085 19.6033C49.8416 19.4918 50.0693 19.2528 51.2213 17.6999C51.9461 16.7232 52.5391 15.8954 52.5391 15.8605C52.5391 15.7883 52.5664 15.7855 51.682 15.9457Z" fill="#00996B"/>
<path d="M133.688 20.0715L135.006 20.2362C137.996 20.6098 140.955 21.4564 144.674 23.0018C145.81 23.4738 146.903 23.9263 147.101 24.0073C147.377 24.1204 147.501 24.1158 147.628 23.9876C147.852 23.7634 147.517 23.5158 145.751 22.5989C142.804 21.0685 139.492 19.9184 136.236 19.2943L135.357 19.1257L133.688 20.0715Z" fill="#00996B"/>
<path d="M87.7406 23.5841C62.0758 24.5717 36.9504 30.6705 14.4367 41.3773L12.7886 42.161L11.3575 44.6677C10.5704 46.0464 9.94747 47.193 9.9732 47.2153C9.99888 47.238 10.9396 46.7011 12.0635 46.0223C14.4634 44.5733 19.3737 42.0619 22.545 40.6616C39.7434 33.0678 60.234 28.4411 82.467 27.1313C85.5496 26.9499 92.9788 26.7341 95.5197 26.7524C97.3564 26.7656 97.4693 26.7791 96.6403 26.8844C88.1403 27.9651 79.2793 30.1597 71.463 33.1208C68.4427 34.2648 68.4168 34.3423 71.3265 33.5281C72.2691 33.2643 74.642 32.728 76.6004 32.3365C85.11 30.6344 94.1891 29.5189 105.078 28.8373C107.905 28.6603 121.572 28.5454 119.778 28.7136C115.89 29.0785 111.571 29.788 108.242 30.6088C104.952 31.42 100.734 32.7674 101.412 32.7901C101.499 32.7929 102.359 32.6798 103.323 32.5385C114.424 30.9131 127.352 30.7178 139.422 31.9933C140.692 32.1274 141.937 32.2455 142.192 32.2558C143.32 32.3018 150.83 33.5567 155.376 34.4587C159.017 35.1815 165.007 36.5662 167.24 37.2015C169.01 37.7051 169.564 37.8164 169.34 37.6235C169.155 37.4648 164.862 35.7678 162.297 34.8401C139.856 26.721 112.712 22.6228 87.7406 23.5841Z" fill="#017991"/>
<path d="M157.69 27.3844C157.457 27.6428 157.459 27.6528 157.781 27.7752C157.963 27.8443 158.341 27.9629 158.622 28.039C159.503 28.2773 162.086 29.2979 164.114 30.2078C165.185 30.6888 166.149 31.0823 166.256 31.0823C167.446 31.0823 163.276 28.7813 160.316 27.8045C158.143 27.0878 157.982 27.062 157.69 27.3844Z" fill="#00996B"/>
<path d="M42.7167 40.2518C37.9656 40.9873 34.0746 42.8038 31.3124 45.5758C29.5368 47.3576 28.2133 49.589 27.5992 51.8361C27.3526 52.7378 27.3102 53.2431 27.3049 55.3281C27.2993 57.6416 27.3172 57.8196 27.657 58.8201C28.3922 60.9852 29.686 62.7977 31.6765 64.4519C32.3103 64.9785 35.0238 66.8863 37.7067 68.6918C43.784 72.7813 44.7755 73.5138 46.3585 75.0857C48.1331 76.8478 48.7155 78.1201 48.7155 80.2328C48.7155 82.3265 48.0034 83.9762 46.4098 85.5751C45.5916 86.3957 45.0842 86.7723 44.1588 87.2483C41.7675 88.4777 39.055 88.9688 36.1664 88.6955C29.8733 88.1001 26.8124 85.0979 25.9727 78.6958C25.8641 77.8666 25.7751 76.5395 25.7751 75.746V74.3031H24.6633C23.7199 74.3031 23.5406 74.338 23.479 74.5341C23.4392 74.6601 23.0741 76.7807 22.6675 79.2446C21.8262 84.3449 21.7988 85.0563 22.3948 86.3569C22.6413 86.8955 23.058 87.4334 23.7676 88.1287C26.6726 90.9758 32.926 92.6191 39.3255 92.2174C45.5763 91.8248 51.0134 89.7209 54.5264 86.3367C57.6364 83.34 59.0048 80.2087 58.997 76.1053C58.9913 73.1458 58.0103 71.0562 55.4884 68.6335C53.8366 67.0464 52.8876 66.3568 46.9357 62.4188C41.4876 58.8141 39.8764 57.6474 38.4647 56.2842C35.2351 53.166 36.4063 47.7144 40.8709 45.0809C44.3832 43.009 49.5244 42.977 53.1849 45.0041C54.3674 45.659 55.8994 47.2259 56.5151 48.4101C57.5265 50.3548 58.0301 52.656 58.1661 55.9541L58.249 57.9635H60.4195L60.6944 56.4811C62.1671 48.5403 62.2692 47.3218 61.5798 45.9064C61.0835 44.8872 59.6221 43.4189 58.406 42.7172C56.4117 41.5664 53.3868 40.622 50.4748 40.2404C48.5801 39.9922 44.354 39.9985 42.7167 40.2518Z" fill="#017991"/>
<path fill-rule="evenodd" clip-rule="evenodd" d="M90.593 42.0521C89.0072 44.5414 60.2905 90.6915 60.2314 90.846C60.1688 91.0092 60.4525 91.0369 62.1162 91.0319L64.0752 91.0253L72.6448 77.3411L92.5974 77.3339L93.0764 79.4092C94.0542 83.6433 94.7081 85.291 96.1037 87.034C98.5813 90.1297 102.185 91.4677 107.451 91.2491C108.539 91.2039 109.666 91.1223 109.956 91.0677L110.484 90.9678L110.634 89.9818C110.716 89.4396 110.775 88.9907 110.765 88.9849C110.756 88.9791 110.345 88.8684 109.854 88.7386C107.744 88.1825 106.101 86.4386 104.989 83.5755C104.694 82.8184 96.9758 51.5715 94.846 42.5135L94.5747 41.3605H91.0334L90.593 42.0521ZM89.363 64.1897C90.6499 69.4258 91.7006 73.7543 91.6992 73.809C91.6977 73.8636 87.9238 73.908 83.3135 73.908C78.7024 73.908 74.9498 73.8578 74.9745 73.7973C75.0824 73.5262 86.8912 54.6725 86.954 54.6711C86.9927 54.6701 88.0767 58.9533 89.363 64.1897Z" fill="#017991"/>
<path d="M117.306 41.5602C114.908 42.0808 113.182 43.702 112.469 46.1041C112.251 46.8379 111.077 53.1909 111.077 53.6368C111.077 53.8532 111.198 53.8783 112.231 53.8763L113.384 53.8739L113.749 52.3938C114.769 48.2602 116.995 45.9747 120.833 45.1171C121.557 44.9553 122.747 44.8772 125.283 44.8249C128.423 44.76 128.744 44.7731 128.744 44.968C128.744 45.0861 126.934 55.4805 124.723 68.0667C122.51 80.6524 120.701 90.9706 120.701 90.9939C120.701 91.0188 122.925 91.0377 125.643 91.0377H130.584L130.653 90.7419C130.692 90.5786 132.501 80.3056 134.674 67.9123C136.847 55.5192 138.658 45.2461 138.697 45.0829L138.769 44.7863H146.611C150.924 44.7863 154.453 44.7668 154.453 44.7429C154.453 44.719 154.57 44.0519 154.714 43.2604C154.858 42.4691 154.977 41.7177 154.978 41.5909C154.98 41.3723 154.02 41.3609 136.555 41.3709C121.559 41.3794 117.977 41.4147 117.306 41.5602Z" fill="#017991"/>
<path d="M39.9481 98.0743C38.3444 98.5815 37.6409 99.4488 37.6409 100.919C37.6409 101.924 37.8549 102.441 38.5211 103.041C38.9717 103.448 41.0009 104.347 41.4674 104.347C41.7734 104.347 43.0136 105.006 43.307 105.324C43.8028 105.863 43.7627 106.63 43.2133 107.121C42.1065 108.11 39.8835 107.866 38.2749 106.581C38.007 106.367 37.7355 106.192 37.6711 106.192C37.6067 106.192 37.4151 106.488 37.2452 106.85L36.9363 107.51L37.2529 107.847C37.7021 108.325 39.2795 109.067 40.2117 109.238C41.8978 109.548 43.6613 109.142 44.5696 108.234C45.2606 107.543 45.4622 106.948 45.3968 105.792C45.3125 104.301 44.631 103.67 42.2554 102.882C41.5665 102.653 40.7952 102.361 40.5414 102.233C38.6807 101.295 39.2782 99.4713 41.4463 99.4713C42.1598 99.4713 43.6251 99.8766 44.037 100.188C44.4241 100.48 44.5986 100.438 44.8256 99.9997C45.3447 98.9962 45.3417 98.9765 44.6272 98.6142C43.2648 97.9242 41.1831 97.6837 39.9481 98.0743Z" fill="#00996B"/>
<path d="M46.3424 99.4712H49.902V109.223H51.4842V99.4712H55.044V98.0219H46.3424V99.4712Z" fill="#00996B"/>
<path fill-rule="evenodd" clip-rule="evenodd" d="M56.626 109.223H58.34V105.797H61.5913L63.6875 109.157L64.6393 109.196C65.163 109.217 65.5913 109.206 65.5913 109.171C65.5913 109.136 65.0336 108.288 64.3519 107.285L63.1125 105.464L63.763 105.1C65.8387 103.942 66.0275 100.155 64.0764 98.8134C63.0964 98.1392 62.3974 98.0219 59.3707 98.0219H56.626V109.223ZM62.5884 99.8313C64.3415 100.622 64.2863 103.156 62.4984 103.968C62.0655 104.164 61.6257 104.209 60.1529 104.212L58.34 104.215V99.4415L60.1529 99.4962C61.6416 99.5406 62.077 99.6002 62.5884 99.8313Z" fill="#00996B"/>
<path fill-rule="evenodd" clip-rule="evenodd" d="M68.9187 103.525C67.5944 106.55 66.5117 109.069 66.5125 109.123C66.5133 109.178 66.8933 109.223 67.3567 109.223H68.1992L69.312 106.587H75.0306L76.1119 109.157L77.9726 109.233L76.9167 106.824C76.3365 105.497 75.2333 102.975 74.4647 101.217L73.0685 98.0219L71.3265 98.0263L68.9187 103.525ZM73.2901 102.547C73.8414 103.84 74.2926 104.922 74.2926 104.952C74.2926 104.982 73.3434 105.006 72.1835 105.006C71.0232 105.006 70.074 104.964 70.074 104.913C70.074 104.664 72.1271 100.022 72.2016 100.103C72.2489 100.154 72.7388 101.254 73.2901 102.547Z" fill="#00996B"/>
<path d="M79.4344 109.223H81.0166V98.0219H79.4344V109.223Z" fill="#00996B"/>
<path d="M82.599 99.4712H86.1584V109.223H87.7406V99.4712H91.3002V98.0219H82.599V99.4712Z" fill="#00996B"/>
<path fill-rule="evenodd" clip-rule="evenodd" d="M100.221 98.4444C100.119 98.6827 99.0436 101.131 97.8318 103.886C96.6192 106.64 95.5955 108.97 95.5569 109.064C95.5021 109.197 95.6889 109.226 96.3851 109.196L97.2836 109.157L98.3706 106.653H104.115L105.197 109.223H106.093C106.586 109.223 106.986 109.178 106.981 109.123C106.977 109.069 105.891 106.564 104.569 103.557L102.164 98.0876L100.406 98.0102L100.221 98.4444ZM102.428 102.7L103.401 104.94L102.367 104.978C101.798 104.999 100.828 104.999 100.211 104.978L99.0887 104.94L100.018 102.766C100.529 101.57 101.009 100.443 101.082 100.262C101.211 99.9465 101.222 99.9435 101.336 100.196C101.402 100.342 101.893 101.468 102.428 102.7Z" fill="#00996B"/>
<path fill-rule="evenodd" clip-rule="evenodd" d="M108.44 109.223H110.154V105.797H113.405L115.501 109.157L116.454 109.196C116.977 109.217 117.405 109.198 117.405 109.155C117.405 109.112 116.846 108.263 116.163 107.267L114.92 105.456L115.523 105.136C117.649 104.009 117.871 100.176 115.89 98.8134C114.91 98.1392 114.211 98.0219 111.184 98.0219H108.44V109.223ZM114.477 99.8488C116.159 100.717 116.061 103.173 114.312 103.968C113.879 104.164 113.439 104.209 111.967 104.212L110.154 104.215V99.4385L112.033 99.4976C113.641 99.5486 113.993 99.5988 114.477 99.8488Z" fill="#00996B"/>
<path d="M119.778 109.223H127.821V107.773H121.493V104.347H126.898V102.766H121.493V99.4712H127.557V98.0219H119.778V109.223Z" fill="#00996B"/>
<path fill-rule="evenodd" clip-rule="evenodd" d="M131.059 103.392C129.763 106.345 128.676 108.865 128.642 108.991C128.589 109.194 128.686 109.223 129.435 109.223H130.289L131.35 106.653L137.115 106.586L138.191 109.157L139.071 109.196C139.554 109.217 139.951 109.188 139.952 109.13C139.953 109.072 138.874 106.549 137.552 103.523L135.151 98.0219H133.415L131.059 103.392ZM135.328 102.437C135.855 103.668 136.315 104.75 136.352 104.841C136.404 104.969 135.931 105.006 134.245 105.006H132.071L133.135 102.501C133.721 101.124 134.239 100.042 134.286 100.097C134.333 100.151 134.801 101.204 135.328 102.437Z" fill="#00996B"/>
<path d="M102.82 116.394C100.783 116.859 99.7392 118.048 99.7429 119.896C99.7465 121.879 100.549 122.569 104.025 123.571C104.952 123.838 105.539 124.226 105.539 124.57C105.539 124.877 104.876 125.298 104.391 125.298C103.691 125.298 102.004 124.677 101.143 124.103C100.717 123.818 100.324 123.586 100.27 123.586C100.217 123.586 99.9025 124.164 99.573 124.871L98.9722 126.155L99.3119 126.442C99.8048 126.857 101.146 127.484 102.123 127.755C103.409 128.111 105.63 128.073 106.645 127.678C108.209 127.067 109.009 125.946 108.997 124.382C108.988 123.315 108.824 122.87 108.201 122.224C107.587 121.586 107.12 121.347 105.453 120.82C103.703 120.266 103.268 120.003 103.323 119.533C103.352 119.282 103.471 119.138 103.725 119.05C104.211 118.88 105.718 119.248 106.924 119.831C107.431 120.075 107.866 120.222 107.89 120.155C107.913 120.088 108.196 119.494 108.516 118.835C108.836 118.177 109.099 117.609 109.099 117.574C109.099 117.447 107.431 116.739 106.66 116.538C105.508 116.239 103.782 116.175 102.82 116.394Z" fill="#017991"/>
<path d="M52.6709 119.237H55.835V127.802H59.2628V119.237H62.559V116.47H52.6709V119.237Z" fill="#017991"/>
<path fill-rule="evenodd" clip-rule="evenodd" d="M63.35 127.802H66.7778V124.771H68.4552L69.8762 127.801L71.8208 127.802C72.8904 127.802 73.7655 127.773 73.7655 127.737C73.7655 127.702 73.2873 126.895 72.703 125.945L71.6407 124.217L72.2342 123.632C73.0393 122.838 73.3704 121.93 73.369 120.517C73.3668 118.928 72.8189 117.888 71.5805 117.123C70.7758 116.626 69.561 116.475 66.3493 116.472L63.35 116.47V127.802ZM69.6886 119.622C70.0607 119.994 70.1348 120.249 70.075 120.95C69.9999 121.834 69.4466 122.136 67.9051 122.136H66.7778V119.237H68.0406C69.2603 119.237 69.3162 119.25 69.6886 119.622Z" fill="#017991"/>
<path fill-rule="evenodd" clip-rule="evenodd" d="M76.2328 122.034C74.9453 125.097 73.8939 127.649 73.8947 127.703C73.8961 127.758 74.6843 127.802 75.6453 127.802H77.3937L77.7007 126.945L78.0082 126.089H82.4253L82.6688 126.894C82.803 127.336 82.9788 127.723 83.0591 127.754C83.14 127.785 83.9849 127.794 84.9371 127.773L86.6696 127.736L82.1075 116.536L78.5734 116.463L76.2328 122.034ZM80.803 121.708C81.0844 122.487 81.3432 123.198 81.3777 123.289C81.425 123.413 81.1436 123.454 80.2256 123.454C79.3106 123.454 79.0254 123.413 79.0699 123.289C79.6882 121.551 80.1739 120.293 80.2256 120.292C80.262 120.292 80.5217 120.929 80.803 121.708Z" fill="#017991"/>
<path d="M87.3455 127.802H90.504L90.5755 121.866L95.0209 127.802H98.0242V116.47H94.8599V122.577L90.3116 116.481L87.3455 116.47V127.802Z" fill="#017991"/>
<path d="M114.373 116.47V119.237H117.669V127.802H121.097V119.237H124.261V116.47H114.373Z" fill="#017991"/>
<path d="M110.154 116.47V127.802H113.582V116.47H110.154Z" fill="#017991"/>
</svg>
